<svg id="Layer_2" data-name="Layer 2" xmlns="http://www.w3.org/2000/svg" viewBox="0 0 450 450"><defs><style>.cls-1{fill:#f9bf36;}.cls-2,.cls-3{fill:#fff;}.cls-3{font-size:91.72px;font-family:Phosphate-Inline, Phosphate;}</style></defs><title>Artboard 20</title><circle class="cls-1" cx="227.62" cy="225.25" r="186.18"/><path d="M84.55,248.5a144.94,144.94,0,0,0,286.13,0Z"/><polygon points="64.86 217.41 66.8 223.4 73.1 223.4 68 227.1 69.95 233.09 64.86 229.39 59.76 233.09 61.71 227.1 56.61 223.4 62.91 223.4 64.86 217.41"/><polygon points="389.08 217.41 391.03 223.4 397.33 223.4 392.23 227.1 394.18 233.09 389.08 229.39 383.99 233.09 385.94 227.1 380.84 223.4 387.14 223.4 389.08 217.41"/><path d="M285,156.55c-1.88,1.84-.46,5.42-.46,5.42s1.31-.82,2-1.28,4.12.4,5.18-.23.76-3.41.76-3.41Z"/><path d="M292.44,153a2.15,2.15,0,0,0-3.13-.39l-.3,3.25,3.16.18Z"/><path d="M303.1,141.38c-2-.47-11.19-1.73-11.19-1.73a3.28,3.28,0,0,0-3.15,2.46l-1.29,8.5a2.62,2.62,0,0,0,.44,1.81l.58.62a2.09,2.09,0,0,1,2.36-1.35c1.95.13,2.25,1.27,2.25,1.27l-.07.54,7.77,1s2.19.05,2.49-1.44,1.09-8.75,1.09-8.75S305.12,141.86,303.1,141.38Z"/><path d="M287.24,152.44a7.43,7.43,0,0,1-.06-3.84c.44-2.69.92-7.34.92-7.34s.75-2.54,2.83-2.5,10.17,1.06,10.17,1.06.21-9.52.15-11.71-.16-4-1.6-4.7-8.7-2.3-8.7-2.3-1.51-.18-1.77,1.87l-3.81,26.93a2.17,2.17,0,0,0,.35,1.58A1.89,1.89,0,0,0,287.24,152.44Z"/><path d="M313.7,156.52s.79-1,.88-9.64-.35-18.25-.35-18.25-5.39-2.43-7.4-3c0,0-2.19-.93-2,1.18s.87,13.15.59,18-.53,10.35-.53,10.35Z"/><path d="M317.7,157l7.42,1.15s.77-10.54.32-15.74-.67-8.64-.67-8.64a5,5,0,0,0-1.83-2,30.71,30.71,0,0,0-5.47-1.89s.66,14.88.44,20.11S317.7,157,317.7,157Z"/><path d="M322.47,193.62a1.3,1.3,0,0,0-.19-.06,1.12,1.12,0,0,0-.3,0,1.5,1.5,0,0,0-.81.42,3,3,0,0,0-.53.61,13,13,0,0,0-1.4,2.75,42.39,42.39,0,0,0-1.81,6.08c-.48,2.1-.82,4.26-1.11,6.42s-.45,4.35-.5,6.51a41.38,41.38,0,0,0,.25,6.33,13.39,13.39,0,0,0,.67,3,3.51,3.51,0,0,0,.37.72,1.46,1.46,0,0,0,.72.62l.09,0h.13a1.2,1.2,0,0,0,.27,0,1.3,1.3,0,0,0,.43-.19,2.5,2.5,0,0,0,.57-.55,9.7,9.7,0,0,0,1.24-2.5c.31-.83.55-1.65.76-2.44a73.65,73.65,0,0,0,1.57-7.71c.29-1.85.4-2.92.41-3h0s.15-1.1.33-3a73.46,73.46,0,0,0,.38-7.86c0-.81,0-1.67-.13-2.55a9.86,9.86,0,0,0-.59-2.72,2.42,2.42,0,0,0-.41-.68A1.21,1.21,0,0,0,322.47,193.62Zm.83,17.06.06-.47C323.32,210.5,323.3,210.65,323.3,210.68Zm0,0s0,.19-.07.47C323.25,211,323.28,210.87,323.3,210.71Zm-1.05-.14c-1,7.74-2.81,14.08-4.42,15.65a1,1,0,0,1-.14-.2,2.53,2.53,0,0,1-.26-.6,12.86,12.86,0,0,1-.48-2.85,53.43,53.43,0,0,1,0-6.19c.14-2.12.32-4.26.6-6.4s.61-4.26,1-6.34a51.75,51.75,0,0,1,1.49-6,12.49,12.49,0,0,1,1.16-2.65,2.5,2.5,0,0,1,.59-.68C323,196.23,323.22,202.83,322.25,210.57Z"/><path d="M302.06,199.55h-.8a2.39,2.39,0,0,1-.65-.07,1.09,1.09,0,0,1-.69-.86,3.55,3.55,0,0,1-.06-1.53c.08-.61.15-1.21.23-1.8s.13-1.18.19-1.75c.12-1.14.2-2.2.24-3.12.11-1.83.06-3.06.06-3.06s-.38,1.17-.78,3c-.21.89-.43,1.94-.63,3.06-.1.56-.22,1.14-.3,1.73s-.19,1.2-.28,1.8a4.72,4.72,0,0,0,.14,2.07,2.41,2.41,0,0,0,.56,1,2,2,0,0,0,1,.6,2.74,2.74,0,0,0,1,0l.8-.11c.52-.06,1-.14,1.46-.21,1.81-.29,3-.59,3-.59s-1.23-.13-3.06-.15C303.08,199.55,302.59,199.54,302.06,199.55Z"/><path d="M320.38,173.35q-.79-.12-1.59-.18c-.27,0-.54,0-.81,0a3.52,3.52,0,0,0-.84.13,2.93,2.93,0,0,0-.77.39,3.79,3.79,0,0,0-.65.55,4.31,4.31,0,0,0-.32.4c0-.22,0-.45.06-.72.1-1.38.26-3.34.41-5.71s.35-5.12.51-8.08c.07-1.48.15-3,.18-4.57s.05-3.14.06-4.72c0-3.16-.12-6.32-.25-9.29s-.34-5.72-.52-8.08-.4-4.33-.55-5.7-.25-2.16-.25-2.16.21,3.15.44,7.88c.12,2.37.23,5.13.33,8.09s.16,6.11.16,9.26c0,1.58,0,3.16,0,4.71s-.08,3.08-.14,4.55c-.13,3-.22,5.73-.31,8.09s-.13,4.35-.17,5.73c0,.32,0,.6,0,.85l-.1.15a3.38,3.38,0,0,0-.34.8v0l-2,5.62L311,186.92c-.64,1.87-1.23,3.77-1.85,5.65s-1.19,3.78-1.76,5.68c.72-1.84,1.43-3.7,2.11-5.56s1.39-3.71,2-5.59l2-5.61,1.9-5.63h0v0a3.21,3.21,0,0,1,.27-.65,3.39,3.39,0,0,1,1-1.07,2.78,2.78,0,0,1,.62-.35,2.74,2.74,0,0,1,.71-.13,6.6,6.6,0,0,1,.77,0c.52,0,1,0,1.56.11,1,.12,2.08.27,3.11.44s2.08.36,3.11.55c-1-.29-2-.54-3.06-.78S321.42,173.5,320.38,173.35Z"/><path d="M330.37,182.46c.25-4.45-.86-5.51-1.84-6.25s-3.71-1.24-6.59-1.6a20.47,20.47,0,0,0-5.1,0,12.31,12.31,0,0,1,3.5,1.67,4.33,4.33,0,0,1,1.06,2.6l-8.46,23.63-5.06-2.88,4.76,3.72,0,0h.1l.78.61a6.36,6.36,0,0,1-1.36,0l-6.41-.8-23.67,1.44c-.17-.79-.4-1.63-.64-2.42l10.84-.44h.15a2.79,2.79,0,0,0,.51-.19c.15-.07.27-.15.4-.22a6.44,6.44,0,0,0,.71-.51,8.68,8.68,0,0,0,1.16-1.19,13.84,13.84,0,0,0,1.68-2.73A29,29,0,0,0,298,194c.33-.95.63-1.95.93-2.92s.56-2,.81-3,.49-2,.7-3,.41-2,.59-3,.35-2,.5-3c.6-4,1-8.08,1.22-12.13l.68-12.15L302.35,167c-.38,4-.88,8.06-1.6,12-.18,1-.37,2-.59,3s-.43,2-.68,2.94-.51,2-.78,2.92-.58,1.93-.9,2.89-.64,1.89-1,2.84a24.07,24.07,0,0,1-1.16,2.73,12.42,12.42,0,0,1-1.57,2.4,6.32,6.32,0,0,1-1,1,4.6,4.6,0,0,1-.53.37c-.1,0-.19.1-.28.13l-.12,0h0l-11.21.1v.33c-.34-1-.61-1.76-.61-1.76a11.34,11.34,0,0,1-.16-1.9c.23-1.41.41-2.82.52-4.25.07-.87.11-1.76.1-2.65l-.07-2.6-.12-4.79.24,0,1.25-21.27-1.87,15.63v0a20.05,20.05,0,0,0-1.32-5.14,8.33,8.33,0,0,0-.67-1.2,4.7,4.7,0,0,0-.46-.56l-.26-.27-.15-.12.83-7.65L238.26,161s3,.78,2.79,2.5a4.56,4.56,0,0,1-1.12,2.31l-.46.43-.22.24-.27.2c-.8.58-2.87,2-3.25,1.23a9.29,9.29,0,0,1-.53-1.75,13.45,13.45,0,0,0,.19-1.6,8.89,8.89,0,0,0-1.27-5.71l46.3.88.33,1.38.44-2.51,3.62-20.38L286.57,128l1.54-9.16h0c.73-.42,4.54.06,4.54.06l20.05,6.38.86-.3,2.27.89,1.78.74c1.15.48,2.4,1,3.7,1.59.66.29,1.33.59,2,.92.34.17.67.34,1,.52l.19.14.08,0,.09.12a1,1,0,0,1,.12.22,1.22,1.22,0,0,1,.1.23,22,22,0,0,1,.85,4.66c.17,1.62.29,3.29.4,4.95.21,3.31.28,6.65.33,9.77,0,1.56,0,3.07,0,4.5s0,2.78-.08,4c-.15,2.49-.23,4.58-.3,6,0,1-.07,1.74-.09,2.07l-1.44-.26c-.27,0-.48-.06-.72-.09l-.71-.07-1.41-.15L319,165.6c-.94-.07-1.88-.15-2.83-.19.93.19,1.86.35,2.79.52l2.81.44,1.4.21.7.1c.23,0,.49.06.69.1l2.66.49c.48.73,1,1.46,1.45,2.18-.05,1.11-.06,2.22-.09,3.33s0,2.28,0,3.43c.14-1.14.27-2.28.37-3.41s.22-2.28.29-3.42v-.09l-.05-.08q-.75-1.2-1.53-2.4l-.07-.11-.14,0-1.34-.24c0-.33.1-1,.2-2.06.13-1.45.34-3.53.54-6,.11-1.25.14-2.61.18-4s.06-2.94.05-4.51c0-3.13-.07-6.46-.25-9.81-.12-1.66-.26-3.33-.45-5a33.83,33.83,0,0,0-.52-3.35c.32-.81.83-3.09-2.35-4.85-3.93-2.17-20-8-25-9.85s-9.44-2.53-11.05-3.07a5.25,5.25,0,0,1,1.9,2.26,6.33,6.33,0,0,1,.25,1.58,11.87,11.87,0,0,0-1.28.09s-.8,1.33-.22,1.07L286.2,128l-2.05,10.15-3.56,18.08c-.12-.36-.25-.73-.4-1.1a10.83,10.83,0,0,0-1.78-3.07,5.78,5.78,0,0,0-.65-.66l-.05,0-.07,0-.09-.06-.17-.12a4.2,4.2,0,0,0-.38-.24,5.88,5.88,0,0,0-.84-.41,6.45,6.45,0,0,0-.83-.32,23.45,23.45,0,0,0-3.34-.87c-1.13-.22-2.26-.39-3.39-.52l-.85-.1-.22,0-.18,0-.42-.05-1.68-.21-6.71-.85q-6.71-.85-13.42-1.64l-13.43-1.6-13.43-1.59-13.43-1.51c-4.48-.51-9-1-13.45-1.49-2.23-.24-4.48-.49-6.74-.59s-4.51-.15-6.77-.09c2.26,0,4.51.16,6.75.34s4.47.49,6.71.81c4.46.63,8.93,1.21,13.4,1.8l13.4,1.77,13.42,1.7L245,147.07q6.71.85,13.42,1.64l6.71.81,1.68.2.42.05.24,0,.2,0,.83.09c1.1.12,2.21.28,3.3.49a22.55,22.55,0,0,1,3.19.8c.26.09.51.18.75.29a4.78,4.78,0,0,1,.68.32,4,4,0,0,1,1.19,1,14.1,14.1,0,0,1,2.57,5.87l.27,1.11L233,157.58a19.19,19.19,0,0,0-8.12-4.08c-3.69-.77-28.44-4.39-29.52-4.54-.32,0-32.29-3.4-38.71-3.78-6-.36-8.46.84-8.93,1.11s-4.58,1.94-6.43,8.27a40.75,40.75,0,0,0-1.52,12.2l-1.49.15c.13-2.19.31-4.38.59-6.56a36.66,36.66,0,0,1,1.53-6.79,23.68,23.68,0,0,1,1.27-3.22,7,7,0,0,1,.88-1.42,9.68,9.68,0,0,1,1.15-1.25,20.83,20.83,0,0,1,5.78-3.63,33.77,33.77,0,0,1,3.23-1.19c1.1-.35,2.22-.63,3.35-.89s2.28-.48,3.41-.67,2.29-.37,3.44-.52q3.47-.45,7-.72c2.32-.18,4.65-.31,7-.39l.5,0,.21-.44q4.54-9.21,9.17-18.37c1.54-3,3.08-6.1,4.68-9.11.4-.75.81-1.49,1.22-2.22.1-.19.21-.35.31-.53s.22-.37.3-.48l.38-.52.35-.39a5.39,5.39,0,0,1,1.76-1.26,5.51,5.51,0,0,1,1-.33,4.63,4.63,0,0,1,.52-.07,3.67,3.67,0,0,1,.45,0h.09l21.76,1.19c1.8.11,3.63.23,5.43.38l5.42.48L241.24,109q10.86,1.09,21.7,2.3l21.69,2.34a7.18,7.18,0,0,1,2.53,1.48,4.18,4.18,0,0,1,.85,1.22,2.61,2.61,0,0,1,.28,1.45,2.79,2.79,0,0,0-.21-1.48,4.45,4.45,0,0,0-.81-1.29,5.76,5.76,0,0,0-1.19-1,8.84,8.84,0,0,0-1.37-.7h0l-10.8-1.57c-3.6-.51-7.21-1-10.81-1.51q-10.83-1.44-21.66-2.78c-1.81-.22-3.61-.45-5.42-.65l-5.43-.59c-1.81-.19-3.63-.37-5.45-.54s-3.62-.32-5.45-.45L197.84,104h.09a4.58,4.58,0,0,0-.83,0,4.52,4.52,0,0,0-.75.1,7,7,0,0,0-1.43.45,7.53,7.53,0,0,0-2.37,1.71l-.5.58-.38.52c-.17.24-.25.4-.38.6s-.24.39-.34.58c-.42.76-.84,1.52-1.24,2.28-1.6,3-3.13,6.11-4.67,9.17-3,6-5.88,12-8.78,18.05-2.19.11-4.36.29-6.53.5-2.34.24-4.68.52-7,.88q-1.74.27-3.48.6c-1.18.23-2.3.48-3.46.76s-2.29.61-3.41,1a31.34,31.34,0,0,0-3.32,1.31,20.21,20.21,0,0,0-5.94,4,11.94,11.94,0,0,0-1.18,1.38,8.44,8.44,0,0,0-.87,1.51v-.26l-4.93.18c-1.47.06-3.2.14-5,.26q-1.4.08-2.85.21a23.8,23.8,0,0,0-3,.39,9.16,9.16,0,0,0-5.06,2.92,7.6,7.6,0,0,0-1.3,2.37c-.31.79-.58,1.54-.82,2.24-.94,2.8-1.5,4.69-1.5,4.69s.64-1.86,1.69-4.62c.27-.69.56-1.43.9-2.2a7.48,7.48,0,0,1,1.34-2.22,8.64,8.64,0,0,1,4.88-2.55,23,23,0,0,1,2.88-.26c1-.05,1.91-.08,2.83-.1,1.84,0,3.56,0,5,0h4.1a9.3,9.3,0,0,0-3.22,2,13.33,13.33,0,0,0-2.42,5.33c-.36,1.28-1,4.81-1.33,6.69l-16.81-1,16.6,2.26h0l.15,0,.5.06v0l4.46.4s.08-3.38.34-6.32c-.18,2.18-.25,4.37-.27,6.55l-.91.1a19.57,19.57,0,0,0-8,1.19,33.55,33.55,0,0,0-9.85,6l.82.14-3.84-.47c-1-.1-1.94-.22-2.92-.28H113a1,1,0,0,0-.2,0,3.06,3.06,0,0,0-.68.33,5.24,5.24,0,0,0-1.1,1h0v0l-.29,2.93.27-1.82c-.12,1.79-.23,5.31.68,7.13,1.25,2.49,5.8,3.45,13.81,4.84s18.14,2.85,18.14,2.85-.74,1.55-2,1.49-25.36-4.93-27.75-6-3.36-2.94-3.35-3.93.18-4,.18-4-1.21,4.5,1.09,7.26a5.61,5.61,0,0,0,2,4.44c.92.79,2.58,1.41,3,2.63a5.8,5.8,0,0,1,.12,2.16c-.25,4.42.59,8.82,1.44,13.17a36,36,0,0,1,.75-10.61,36.24,36.24,0,0,1,1.24-5.36c.08-.2.69-1.44,1-2.21,4,1.16,7.78,2,7.78,2s13.59,3.57,16.48,4.15,3.68-.53,3.68-.53l-2.7-.34,1-12.81,2-3,6.73.93,61.71,8-.2,1.6s7.92,1.58,10.68-.43a12.52,12.52,0,0,0,4.45-6.09,27.44,27.44,0,0,0,.49-2.74l-.85-.16L235,181c-.1.58-1,5.2-3.66,8-1.94,2-6.42,2-9.15,1.8L236,192.54c4.05.49,8.15,1.23,12.22,1.5,2.24.15,2.56-1.66,4.06-3.21l.35-.36a16.22,16.22,0,0,1,14.6-4.29c-2.38-.66-4.7-1.42-7.11-2l.39.05,0-.32,0-.32-3.27-.41c.78-2.07,1.54-4.17,2.38-6.2.23-.54.46-1.06.71-1.62s.49-1.07.76-1.58a8.82,8.82,0,0,1,2-2.68,3.92,3.92,0,0,1,.32-.25,1.94,1.94,0,0,1,.33-.2,3.67,3.67,0,0,1,.73-.32l.39-.1.42-.06a8.08,8.08,0,0,1,.86-.11c1.17-.12,2.35-.16,3.54-.19s2.38,0,3.57,0H276a7.66,7.66,0,0,1,.7.44l.24.21.19.2c.12.12.23.31.35.46a6.46,6.46,0,0,1,.58,1.07,19.13,19.13,0,0,1,1.18,4.92,45.64,45.64,0,0,1,.27,5.13l.06,5.19,0,2.59c0,.85-.05,1.69-.13,2.54a50.92,50.92,0,0,1-.73,5.08l.17,0c0,.17-.07.33-.11.47a21.79,21.79,0,0,0-5.73-7.84,13.3,13.3,0,0,0-4.44-2.49,12.1,12.1,0,0,0-2.31-.49,11.24,11.24,0,0,0-2.24,0,14.16,14.16,0,0,0-6.83,2.57,21,21,0,0,0-3.5,3.1c-.37.39-.62.71-.8.92l-.27.32.29-.3c.19-.2.47-.51.86-.87a22.39,22.39,0,0,1,3.63-2.86,13.71,13.71,0,0,1,6.66-2.17,11.12,11.12,0,0,1,2.07.12,10.39,10.39,0,0,1,2.14.57,12.47,12.47,0,0,1,4,2.45,22.44,22.44,0,0,1,5.76,9,41.49,41.49,0,0,1,2.32,11.88,49.37,49.37,0,0,1-.06,6.43c0,.54-.09,1.09-.14,1.63s-.13,1.08-.19,1.62l-.24,1.66c-.1.54-.2,1.08-.29,1.62a47.5,47.5,0,0,1-4.29,12.65,27.84,27.84,0,0,1-8.29,10.14,15.07,15.07,0,0,1-2.76,1.55,11.74,11.74,0,0,1-3,.87,11.26,11.26,0,0,1-3,0h0v-.07l-.27,0-.52-.09-.7-.18a11.86,11.86,0,0,1-1.41-.51,14,14,0,0,1-4.73-3.57,22.5,22.5,0,0,1-3.24-4.86,37,37,0,0,1-3.22-10.37c-.22-1.3-.36-2.57-.46-3.8.54-1.85,2.57-3.05,4.33-3.4,0,0,.18-3.81.73-8.17a23,23,0,0,1,3.06-8.1,14,14,0,0,0,3-5.08c1.24-3.65,2.28-6.54,2.28-6.54s-3.56-.22-4.58-.12a4.52,4.52,0,0,0-2.17,1.29l-.69,9.09-.81-9.12-33.92-4a11.36,11.36,0,0,1-2.59,4.41c-1.85,1.83-2-4.38-2-4.38s-8.57-1.07-10.44-1.46.58-3.47.58-3.47l-.13.09a3.51,3.51,0,0,1,1.63-1.34,6.22,6.22,0,0,0-3.24,2c-1.44,1.72-2,7.69-2,7.69l-.53,4.3s2.32,3.76,4.32,3.9,26.34,2.29,26.34,2.29L229,207a1.42,1.42,0,0,0-.05.16c0,.16-.1.32-.14.49-2.1-.16-10.52-.78-12.88-1-2.72-.23-14-1.42-15.47-1.72a5.79,5.79,0,0,1-3-1.69c-.28-.36-.74-1.07-.74-1.07l-46.65-6.5s-1.11,1.83-4,1.14-15-3.52-15-3.52a13.15,13.15,0,0,0-1.88,7.11c0,4.49.49,6.64,2.34,8.51s6.36,3.43,8.75,1.87a13.69,13.69,0,0,0,3.46-3.08s2.61,1,4.21.53a8.73,8.73,0,0,0,2.68-1.31s4.28,0,5.68.16a56,56,0,0,1,5.92,1.73,12.24,12.24,0,0,0,2,.91c.44.05-.36,1.16-.36,1.16a38.76,38.76,0,0,0,7,.43c2.34-.26,8.65,1,11.43,1.54a8.54,8.54,0,0,1,4.14,1.94l3.35.42,0-1.31,8,1.11s2.22,5,6.24,6.15a10.34,10.34,0,0,0,7.45-.82,20.06,20.06,0,0,1,4.87-1.25c1.65,0,10.39,1.08,10.39,1.08s0-.14,0-.37a50.7,50.7,0,0,0,0,5.78,42.75,42.75,0,0,0,.8,6.13,35.79,35.79,0,0,0,1.83,6.15,26.16,26.16,0,0,0,3,5.69,15.2,15.2,0,0,0,4.6,4.37,24.82,24.82,0,0,0,5.45,2.26c1.78.52,3.46,1,5.06,1.27a42.12,42.12,0,0,0,7.82.76c.95,0,1.7,0,2.21,0l.76,0v-.09a12.3,12.3,0,0,0,3.15,0,15.22,15.22,0,0,0,6.54-2.66,24.61,24.61,0,0,0,5.12-4.86,35,35,0,0,0,3.81-5.93,48.73,48.73,0,0,0,4.41-13.18c.1-.57.2-1.14.29-1.71l.24-1.66c.05-.57.11-1.14.17-1.71s.09-1.12.13-1.68c.06-1,.08-2.1.08-3.14l4.19-.62a2,2,0,0,0,1.35,1.63c1.5.47,3.15.82,3.76.48l.61-.35,5.4.92a2.86,2.86,0,0,0,.14,1.19c.36.65,1.31,2,2,3-.05,6.81,1,11.63,2.88,11.87l10.53,1.25A5.69,5.69,0,0,0,319,232c2.44-3.66,5.84-13.85,7.45-26.68h0s.92-7,1.7-13.08l1.12.54S330.12,186.9,330.37,182.46ZM138.54,160.29a25.52,25.52,0,0,1,.4-2.95C138.77,158.32,138.63,159.3,138.54,160.29Zm-26.62,25.64.32.3A1.87,1.87,0,0,1,111.92,185.93Zm119.15-5.6-.43,1.13s-1,3.27-3.11,4.78a9.68,9.68,0,0,1-6.54,1.54c-1.74-.22-55.68-7.86-55.68-7.86l-21.25-3.54-6.84-.71-2.44,1.76,12.08,1.68-2.35,3s-7.85-.86-16.6-2.54A125.91,125.91,0,0,1,111.17,175a4.38,4.38,0,0,1,1.08-.89,2.59,2.59,0,0,1,.64-.28l.15,0h.18l.35,0c1,.11,1.92.26,2.88.42,1.92.31,3.83.65,5.75,1q5.74,1,11.49,2.11l.13-.85h.1a23.38,23.38,0,0,1,2-1.28c.7-.35,7.47.72,7.47.72s-3-.49-4.21-2.28c-1-1.44-1-4.39-1-5.5l2.93-.3,0-.62a39.66,39.66,0,0,1,1.44-12.37c1.77-6,5.53-7.39,5.68-7.44l.15-.07s2.13-1.32,8.23-.95c6.39.38,38.33,3.74,38.62,3.77S221,154,224.61,154.76a17.32,17.32,0,0,1,7.85,4.08h0l.16.17c1.17,1.35,1.62,3,1.49,5.5-.15,2.86-2.16,9.63-2.17,9.65l-2.27,6,1.2.45.11-.3h.09l.15,0s2-3.66,4-7.22c-1.19,2.21-2.34,4.44-3.47,6.68h0a2,2,0,0,0-.12.34.58.58,0,0,0,0,.18.18.18,0,0,0,0,.1Zm42.21-10.82c-1.19-.1-2.39-.19-3.58-.25s-2.4-.07-3.61,0c-.31,0-.61,0-.92.07l-.46.05-.49.1-.12,0-.13,0-.21.08a2.92,2.92,0,0,0-.46.2,2.65,2.65,0,0,0-.44.25,2.21,2.21,0,0,0-.4.28,9.28,9.28,0,0,0-2.35,2.94c-.3.54-.57,1.09-.83,1.62s-.53,1.09-.76,1.65c-.87,2.07-1.67,4.13-2.44,6.22-1.9-.22-3.81-.45-5.72-.65-2.07-.22-4.14-.44-6.22-.64l-3.11-.29-3.12-.27c-2-.15-4.09-.34-6.13-.45l-.18,0a.18.18,0,0,1,0-.1,1.16,1.16,0,0,1,0-.18c0-.11.08-.23.13-.34h0c1.61-3.06,3.25-6.12,5-9.11.43-.75.88-1.49,1.34-2.23a11.06,11.06,0,0,1,1.56-2,7.16,7.16,0,0,1,1.5-1.14,12.84,12.84,0,0,1,3.91-1.25c.55-.05,1.09-.06,1.66-.07s1.37,0,2,.05c1.83.12,3.6.23,5.08.31l.63,0c1.72.15,3.44.34,5.15.6s3.38.62,5.06,1,3.33.89,5,1.4,3.28,1.08,4.86,1.74c.42.19.86.38,1.27.6C275,169.67,274.12,169.58,273.28,169.51Zm-23.11,39a5.69,5.69,0,0,0,1.53-1.23,7.14,7.14,0,0,1-1.49,1.83c-1.05.8-2.68.76-4.13.65l-1-.09a.11.11,0,0,0-.07,0c.15-.61.27-1,.34-1.31A28.64,28.64,0,0,0,250.17,208.48Zm-8.21,24a65.35,65.35,0,0,1,1-23.34L230.71,208s-3.38,5.77-2.11,19.21a36.59,36.59,0,0,0,5.1,16.11c-.13-.15-.26-.31-.38-.47a24.8,24.8,0,0,1-3.08-5.38,39,39,0,0,1-2.9-12,53.88,53.88,0,0,1,.2-10.82c.16-1.4.37-2.69.6-3.85.53-1.72,1.1-3.2,1.1-3.2l-.38,0c0-.15.09-.32.13-.46a1,1,0,0,1,0-.18c3.67.34,11.25,1,16.27,1.35-.09.26-.23.69-.42,1.31,0,.11-.07.24-.11.36a5.6,5.6,0,0,0-.25.87c-.26.89-.54,2-.8,3.28a54.93,54.93,0,0,0-1,7.2,46.45,46.45,0,0,0,.25,9.46,36.47,36.47,0,0,0,3,10.84,24.32,24.32,0,0,0,3.34,5.27c.26.31.53.6.82.89A25,25,0,0,1,242,232.46Zm55.77-16.85-4.36-.8s-.21-.39-.53-.88l5.32-.8C298,213.81,297.86,214.71,297.73,215.61Zm19.61,15.29c-2.65-.33-3.66-9.74-2.25-21a74.93,74.93,0,0,1,2.34-11.6L319,194c1.15-2.59,2.37-4.07,3.48-3.93,2.65.33,3.65,9.74,2.24,21S320,231.23,317.34,230.9Zm10.59-50.13s-3.66-.17-4.57.28-1.81,3.17-1.81,3.17-6.2,17.23-7,19.18h0c.67-1.94,7-20,7.45-21.69a4.54,4.54,0,0,1,1.86-2.54s4.85-.48,5.17.64a10.15,10.15,0,0,1,0,2.12A1.68,1.68,0,0,0,327.93,180.77Z"/><path d="M276.15,192.06s.24-2.82.23-3.59.24-6.33.09-8.65a6.47,6.47,0,0,0-1.58-4.2,4.07,4.07,0,0,1,2.15,3.17c.39,3-.31,13.89-.31,13.89L278,195a31.16,31.16,0,0,0,.62-5c.15-2.94.31-10.38-.74-12.48a5,5,0,0,0-3.57-2.3,1.13,1.13,0,0,0-.41-.06c-1.43,0-8.11,0-9.82,1.4S260.5,184,260.5,184s2.25.39,7,1.65S276.15,192.06,276.15,192.06Z"/><path d="M202,186.61l.15,0Z"/><path d="M259.49,241.24c7.16.9,14.21-8.14,15.72-20.13s-3.11-22.49-10.28-23.39-14.21,8.13-15.72,20.13S252.32,240.34,259.49,241.24Zm12.87-33.59c.72.3,1.91,2.93,2,7.16.06,2.75,0,6,0,7.89a32,32,0,0,1-3.32,9.82,20.37,20.37,0,0,1-2.91,3.55c-1.59,1.51-2.46.76-2.72.44l.31-.3a18.13,18.13,0,0,0,1.41-1.68,24.65,24.65,0,0,0,2.45-4c.31-.75.7-1.5,1-2.3.15-.39.29-.79.44-1.19l.36-1.23c.25-.82.41-1.68.61-2.53s.29-1.67.42-2.56a36.24,36.24,0,0,0,.22-5.19,29.21,29.21,0,0,0-.58-5c0-.18-.09-.36-.13-.54C271.84,208.81,271.94,207.47,272.36,207.65Zm-8.8-5.72a12.93,12.93,0,0,1,6.08,4.77l.43.75c.1.33.18.66.28,1,.22.72.34,1.49.52,2.26a31.52,31.52,0,0,1,.44,4.82,33.64,33.64,0,0,1-.25,5c-.12.8-.23,1.7-.39,2.5s-.32,1.63-.57,2.42a32.94,32.94,0,0,1-1.59,4.58,26.6,26.6,0,0,1-2.2,3.95c-.38.61-.85,1.12-1.26,1.66-.22.26-.46.49-.68.73s-.44.47-.68.67l-.7.59c-.23.2-.49.34-.72.51a8,8,0,0,1-1.4.8.91.91,0,0,1-.22.11,11.23,11.23,0,0,1-2.67.64l-.62,0H257l-.15,0c-4.21-2.34-7-8.66-7.23-16.32a19,19,0,0,0,2.54,8.54l4.05-10.36-6.27-4c1-7.22,4-13.3,7.76-16.6A15.19,15.19,0,0,1,263.56,201.93Z"/><path d="M260.43,223c1.31.17,2.53-1.34,2.8-3.42s-.56-3.85-1.87-4-2.53,1.34-2.79,3.42S259.12,222.87,260.43,223Zm.85-6.8c.92.12,1.52,1.63,1.31,3.3s-1.16,3-2.08,2.87-1.52-1.63-1.31-3.3S260.36,216.12,261.28,216.23Z"/><path d="M266.21,205.45l-1.49,7.87,4.3-1.42A15.62,15.62,0,0,0,266.21,205.45Z"/><path d="M267.54,227.25a26.79,26.79,0,0,0,1.77-6.84c0-.18,0-.36.06-.54l-4.1,2.08Z"/><path d="M256.12,235.42a6,6,0,0,0,1.33.32,7.35,7.35,0,0,0,5.78-2.1l-2.78-6.24Z"/><path d="M259.24,213.52l2.08-10.92c-3.32-.26-6.57,2.28-8.82,6.42Z"/><path d="M156.17,208.17c-2.38,4.36-5.16,8.9-9.95,10.84a12.59,12.59,0,0,1-15-4.1c-3.36-4.64-3.67-10.29-3.13-15.83,0-.46.9-6.52,1.53-6.4l-7.92-1.54s-4.68,13.77-.39,24.18c3.54,8.6,11.51,15.41,21.24,14.45a18.86,18.86,0,0,0,10.07-3.66,27.58,27.58,0,0,0,7.29-8.26,42.77,42.77,0,0,0,3.1-7.29s-3.44-1.42-4.38-1.75A22,22,0,0,0,156.17,208.17Z"/><path d="M141.25,230.42c-.64,0-1.27,0-1.9,0s-1.26,0-1.88-.09-1.26-.11-1.88-.18-1.25-.17-1.88-.25-1.23-.22-1.84-.33l-1.87-.38c-.6-.13-1.22-.3-1.82-.44s-1.2-.35-1.8-.52l-1.77-.59c-.58-.23-1.17-.43-1.73-.69s-1.13-.51-1.68-.78-1.07-.58-1.58-.91a15.58,15.58,0,0,1-1.48-1q-.35-.27-.66-.57a5.33,5.33,0,0,1-.54-.57l-.07-.09-.12-.1a13,13,0,0,1-1.62-1.62,22.24,22.24,0,0,1-1.44-1.88,23.69,23.69,0,0,1-1.25-2c-.2-.34-.36-.71-.54-1.06s-.35-.72-.5-1.09c-.33-.73-.59-1.49-.85-2.25s-.47-1.54-.66-2.31-.37-1.53-.48-2.37l-.19-1.23-.13-1.19c-.1-.81-.15-1.62-.19-2.43s0-1.63-.07-2.45,0-1.64.07-2.45.09-1.64.18-2.45.18-1.64.29-2.45.26-1.63.41-2.44.33-1.61.53-2.42.41-1.6.67-2.39c-.36.75-.68,1.52-1,2.3s-.56,1.57-.8,2.37-.45,1.61-.64,2.42-.38,1.64-.51,2.47-.26,1.65-.36,2.49-.17,1.67-.23,2.51-.08,1.68-.06,2.52,0,1.69.08,2.53c0,.44.05.82.09,1.29l.15,1.24c.08.81.27,1.67.43,2.51.07.43.2.84.3,1.25s.19.84.34,1.24c.27.81.54,1.62.88,2.41.15.4.33.79.52,1.18s.36.78.58,1.15a25,25,0,0,0,1.33,2.22,19.4,19.4,0,0,0,1.59,2.05,15.38,15.38,0,0,0,1.82,1.78,6.69,6.69,0,0,0,.68.71c.26.24.52.46.79.67a17,17,0,0,0,1.67,1.14c.57.34,1.16.64,1.75.93s1.2.55,1.82.78,1.22.45,1.84.66,1.25.38,1.87.55,1.26.31,1.9.44,1.26.25,1.91.36,1.26.2,1.9.28,1.29.15,1.93.2,1.28.11,1.93.12,1.29,0,1.93,0,1.29,0,1.93-.08,1.29-.13,1.92-.22a15.15,15.15,0,0,0,3.71-1,12,12,0,0,1-1.86.36Q142.2,230.38,141.25,230.42Z"/><path d="M156.55,152.22a6.55,6.55,0,0,0-1-1.7,5.21,5.21,0,0,0-1.48-1.36,5.07,5.07,0,0,0-1.23-.55,5,5,0,0,0-2.78-.36c-.2,0-.4.07-.59.12l-.58.19a7.53,7.53,0,0,0-3.54,3.1,9.35,9.35,0,0,0-1,2.15,9.57,9.57,0,0,0-.48,2.32,11,11,0,0,0,0,2.36,10.66,10.66,0,0,0,.57,2.29,8.19,8.19,0,0,0,1.17,2.08,6,6,0,0,0,1.8,1.57,5.42,5.42,0,0,0,2.29.67,4.8,4.8,0,0,0,1.19-.08,5.64,5.64,0,0,0,1.15-.34,6.79,6.79,0,0,0,1.95-1.3,8.23,8.23,0,0,0,1.45-1.83,10,10,0,0,0,.93-2.13c0-.15.07-.3.11-.44a9.65,9.65,0,0,0,.42-1.38,9.54,9.54,0,0,0,.11-3.55A8.2,8.2,0,0,0,156.55,152.22Zm-.06,5.3a8.89,8.89,0,0,1-1.05,2.84,7.25,7.25,0,0,1-1.66,2,5.29,5.29,0,0,1-1.75,1,4.82,4.82,0,0,1-1.27.2h-.46l.46.05a5.35,5.35,0,0,0,1.31-.12,5.54,5.54,0,0,0,1.85-.89,6.79,6.79,0,0,0,1.82-2,.64.64,0,0,0,.08-.14,9.87,9.87,0,0,1-.55,1,7.71,7.71,0,0,1-1.44,1.73,6.4,6.4,0,0,1-1.89,1.18,4.83,4.83,0,0,1-2.16.33,4.77,4.77,0,0,1-2.07-.67,5.65,5.65,0,0,1-1.61-1.47,7.5,7.5,0,0,1-1.07-1.94,9.94,9.94,0,0,1-.51-2.17c0-.1,0-.19,0-.29.06-.27.15-.47.32-.49s.51.33.65.63a8.33,8.33,0,0,0,.27,1,6.94,6.94,0,0,0,1.28,2.35A5.38,5.38,0,0,0,148.6,163a4.33,4.33,0,0,0,1.24.44l.46.07h0l-.45-.1a5.12,5.12,0,0,1-1.18-.52,5.17,5.17,0,0,1-1.46-1.35,7.42,7.42,0,0,1-1.12-2.31,8.69,8.69,0,0,1-.32-3c0-.26.05-.55.09-.81s.09-.57.17-.84a9.38,9.38,0,0,1,.55-1.62,7.14,7.14,0,0,1,2.16-2.81,4.57,4.57,0,0,1,3.34-1,4.26,4.26,0,0,1,1.71.6,4.75,4.75,0,0,1,1.33,1.2,7.21,7.21,0,0,1,1.4,3.25A9.82,9.82,0,0,1,156.49,157.52Z"/><path d="M171.49,136.59l.39.38,3.78-.41,4.8-10.36-2.26-.28-3.26-.3A2.85,2.85,0,0,0,172,128.1c-.55,2.67-1,7.22-1,7.22A2.62,2.62,0,0,0,171.49,136.59Z"/><path d="M222.16,190.87l-2.26-.28S220.82,190.75,222.16,190.87Z"/><path d="M281.77,116.29s-6.45-1-10.53-1.65-34.43-4.2-49.19-5.28-24.45-1.64-26.05-1.07-3.39,2.53-5,5.73-9.46,20.4-9.46,20.4c.46-1,97.54,12,97.54,12s.72-3.09,1.39-5.85,3.44-17,4-20.54A3,3,0,0,0,281.77,116.29Zm0,5.81c-.32-1.76-.81-3.25-1.48-3.54-1.75-.74-57.6-1.69-72,6s-9.25,8.83-7.47,9.32,13.84,3,13.84,3c-9.41-1.18-16.81-2.07-22-2.64-4.68-.52-7.09-.75-8.36-.79,1.61-3.53,7.38-16.14,8.7-18.75,1.41-2.82,3-4.73,4.47-5.23s13.46.23,24.9,1.07c11.85.87,34.4,3.43,43.84,4.61,1.74.22,3,.39,3.6.48,3.94.6,10.16,1.59,10.16,1.59h.12a2.48,2.48,0,0,1,1.63.87,2.55,2.55,0,0,1,.35,2C282,120.59,281.91,121.28,281.76,122.1Z"/><path d="M165.55,151.48c-.87.67-1.55,3-1.55,3s-3.67,14.65-3.56,17.95a2.21,2.21,0,0,0,1.66,2.09,3.09,3.09,0,0,1-2.07-.57,2.14,2.14,0,0,1-.76-1.47,14.88,14.88,0,0,1,.53-4.4c.39-2.18.85-4.35,1.33-6.52.61-2.77,1.26-5.54,2-8.29A12.82,12.82,0,0,1,164,151a8.85,8.85,0,0,0-1.59,3.11s-3.93,15.68-3.81,19.21c.07,2.32,3.26,3,4.87,1.72a2.54,2.54,0,0,0,.88-1.28,2.33,2.33,0,0,0,.27-.4,15.48,15.48,0,0,0,1-4.42c.5-3,3.09-13.15,3.09-13.15s.89-2.91.2-3.65S166.43,150.8,165.55,151.48Z"/><path d="M173.89,152.52c-.87.68-1.55,3-1.55,3s-3.68,14.65-3.56,18a2.19,2.19,0,0,0,1.65,2.09,3.12,3.12,0,0,1-2.07-.57,2.18,2.18,0,0,1-.76-1.47,15.14,15.14,0,0,1,.54-4.39c.38-2.19.85-4.36,1.33-6.53q.92-4.16,1.95-8.29a12.54,12.54,0,0,1,.92-2.2,8.75,8.75,0,0,0-1.59,3.1s-3.94,15.68-3.82,19.21c.08,2.32,3.27,3,4.88,1.72a2.58,2.58,0,0,0,.88-1.27,2.9,2.9,0,0,0,.27-.41,15.34,15.34,0,0,0,1-4.41c.5-3,3.09-13.16,3.09-13.16s.89-2.91.19-3.65S174.76,151.84,173.89,152.52Z"/><path d="M182.23,153.56c-.88.68-1.55,3-1.55,3s-3.68,14.66-3.57,18a2.22,2.22,0,0,0,1.66,2.09,3.11,3.11,0,0,1-2.07-.58,2.14,2.14,0,0,1-.76-1.46,15.22,15.22,0,0,1,.53-4.4c.39-2.19.85-4.36,1.33-6.52q.93-4.16,2-8.3a13.35,13.35,0,0,1,.91-2.2,8.75,8.75,0,0,0-1.59,3.1s-3.93,15.68-3.81,19.22c.08,2.32,3.27,3,4.88,1.72a2.6,2.6,0,0,0,.88-1.28,2.08,2.08,0,0,0,.27-.41,15.67,15.67,0,0,0,1-4.41c.51-3,3.1-13.15,3.1-13.15s.89-2.91.19-3.66S183.1,152.88,182.23,153.56Z"/><path d="M190.57,154.61c-.88.68-1.56,3-1.56,3s-3.67,14.65-3.56,18a2.2,2.2,0,0,0,1.66,2.09A3.09,3.09,0,0,1,185,177a2.18,2.18,0,0,1-.76-1.47,14.88,14.88,0,0,1,.53-4.4c.39-2.18.85-4.35,1.33-6.52.62-2.77,1.26-5.54,2-8.29a12.11,12.11,0,0,1,.91-2.2,8.75,8.75,0,0,0-1.59,3.1s-3.93,15.68-3.81,19.21c.08,2.32,3.27,3,4.88,1.72a2.67,2.67,0,0,0,.88-1.28,2.3,2.3,0,0,0,.26-.4,15.34,15.34,0,0,0,1-4.42c.5-3,3.09-13.15,3.09-13.15s.89-2.91.2-3.65S191.44,153.93,190.57,154.61Z"/><path d="M198.9,155.65c-.87.68-1.55,3-1.55,3s-3.67,14.65-3.56,17.95a2.21,2.21,0,0,0,1.66,2.1,3.15,3.15,0,0,1-2.07-.58,2.1,2.1,0,0,1-.76-1.46,14.84,14.84,0,0,1,.53-4.4c.39-2.19.85-4.36,1.33-6.52.61-2.78,1.26-5.54,2-8.3a12.54,12.54,0,0,1,.92-2.2,8.75,8.75,0,0,0-1.59,3.1S191.83,174,192,177.51c.08,2.32,3.26,3,4.87,1.73a2.58,2.58,0,0,0,.88-1.28,2.9,2.9,0,0,0,.27-.41,15.34,15.34,0,0,0,1-4.41c.5-3,3.09-13.15,3.09-13.15s.89-2.92.2-3.66S199.78,155,198.9,155.65Z"/><path d="M207.24,156.69c-.87.68-1.55,3-1.55,3s-3.68,14.66-3.56,18a2.2,2.2,0,0,0,1.65,2.09,3.08,3.08,0,0,1-2.06-.58,2.15,2.15,0,0,1-.77-1.46,15.21,15.21,0,0,1,.54-4.4c.38-2.18.85-4.36,1.33-6.52.61-2.77,1.26-5.54,2-8.29a12.82,12.82,0,0,1,.92-2.21,8.85,8.85,0,0,0-1.59,3.11s-3.94,15.68-3.82,19.21c.08,2.32,3.27,3,4.88,1.72A2.6,2.6,0,0,0,206,179a2.33,2.33,0,0,0,.27-.4,15.48,15.48,0,0,0,1-4.42c.5-3,3.09-13.15,3.09-13.15s.89-2.91.19-3.66S208.11,156,207.24,156.69Z"/><path d="M231.59,167.36a8.25,8.25,0,0,0-.07-4.35,9,9,0,0,0-1-2.12,8.22,8.22,0,0,0-3.6-3.12,8.2,8.2,0,0,0-1.29-.45,8.93,8.93,0,0,0-1.91-.49,9.8,9.8,0,0,0-2.91.07,9.07,9.07,0,0,0-2.75,1,8.9,8.9,0,0,0-2.31,1.79,9.09,9.09,0,0,0-2.43,5.26,9.53,9.53,0,0,0,.15,2.91,8.71,8.71,0,0,0,1,2.73,8.91,8.91,0,0,0,1.83,2.27,9.6,9.6,0,0,0,2.45,1.58,9.49,9.49,0,0,0,2.82.7l.71.05.74,0c.24,0,.48-.06.72-.08a4.25,4.25,0,0,0,.71-.14,8.45,8.45,0,0,0,2.67-1.09,8.87,8.87,0,0,0,3.69-4.3,7.46,7.46,0,0,0,.4-1.21A7.83,7.83,0,0,0,231.59,167.36Zm-.46-.09a8.06,8.06,0,0,1-1.63,3.3,8.3,8.3,0,0,1-2.46,2,7.77,7.77,0,0,1-2.33.78,6.77,6.77,0,0,1-.91.11,4,4,0,0,1-.68,0l-.57,0h0l.57.06a4.69,4.69,0,0,0,.68,0,5.19,5.19,0,0,0,.93-.05,8.09,8.09,0,0,0,5-2.64,8.5,8.5,0,0,0,.9-1.27,9,9,0,0,1-1.47,2.28,9.17,9.17,0,0,1-2.17,1.75,8.34,8.34,0,0,1-2.59,1,5.07,5.07,0,0,1-.68.11,5.36,5.36,0,0,1-.69.06h-.69l-.7-.05a8.72,8.72,0,0,1-4.94-2.26,8.24,8.24,0,0,1-1.7-2.15,8.34,8.34,0,0,1-1-2.56h0c0-.46.16-.91.49-.92.49,0,.91.6,1.1.94a9.15,9.15,0,0,0,.53,1.36,8.06,8.06,0,0,0,4.24,3.8,4.65,4.65,0,0,0,.88.28,3.5,3.5,0,0,0,.67.14l.56.09h0l-.55-.12a4.78,4.78,0,0,1-.66-.18,7.79,7.79,0,0,1-2.92-1.65,8.51,8.51,0,0,1-1.9-2.52,8,8,0,0,1-.77-3.62c0-.32,0-.67.09-1a8.24,8.24,0,0,1,.23-1,8.09,8.09,0,0,1,.83-1.92,8.18,8.18,0,0,1,1.38-1.68,8,8,0,0,1,1.83-1.26,8.24,8.24,0,0,1,2.14-.69,8.62,8.62,0,0,1,2.27,0,8.1,8.1,0,0,1,2.18.6,7.88,7.88,0,0,1,1.91,1.2,8,8,0,0,1,1.46,1.67,7.91,7.91,0,0,1,.91,2A8.07,8.07,0,0,1,231.13,167.27Z"/><path d="M228.11,180a4.41,4.41,0,0,0-1.35-2.61,4.61,4.61,0,0,0-1.77-1,4.44,4.44,0,0,0-2.29,0,4.69,4.69,0,0,0-1.14.48,4.75,4.75,0,0,0-1,.82,4.18,4.18,0,0,0-.71,1.09,5,5,0,0,0-.36,1.25,4.41,4.41,0,0,0,.46,2.57,4.31,4.31,0,0,0,1.73,1.78,4.56,4.56,0,0,0,1.11.43,3.93,3.93,0,0,0,.55.09l.56,0a4.34,4.34,0,0,0,3.92-2.71,4.13,4.13,0,0,0,.23-.8c0-.19.05-.29.05-.29s0,.1-.05.29a4.47,4.47,0,0,1-.25.79,3.71,3.71,0,0,1-.68,1.09,4.07,4.07,0,0,1-1.33,1,4.13,4.13,0,0,1-1.88.36l-.51-.05a3.07,3.07,0,0,1-.52-.14,3.86,3.86,0,0,1-1-.45,4.22,4.22,0,0,1-1.44-1.66,5,5,0,0,1-.33-1.08,4,4,0,0,1,.28-2.23,4.77,4.77,0,0,1,.59-1,4.17,4.17,0,0,1,1.8-1.25,4,4,0,0,1,2.1-.13,4,4,0,0,1,1.73.81,3.94,3.94,0,0,1,1,1.28,3.84,3.84,0,0,1,.4,1.22,4.35,4.35,0,0,1,0,.83l0,.3,0-.3A3.65,3.65,0,0,0,228.11,180Z"/><path d="M224.84,176.72a3.69,3.69,0,1,0,3.21,4.12A3.69,3.69,0,0,0,224.84,176.72Z"/><path d="M148.18,168.72a4.88,4.88,0,0,0-.2-1.05,4,4,0,0,0-.63-1.23,2.86,2.86,0,0,0-1.36-1,2.77,2.77,0,0,0-1.9.07,3.53,3.53,0,0,0-1.6,1.32A4.63,4.63,0,0,0,142,171a3.56,3.56,0,0,0,1.22,1.67,2.79,2.79,0,0,0,.9.44,2.66,2.66,0,0,0,.46.09,3.73,3.73,0,0,0,.47,0,2.88,2.88,0,0,0,1.55-.62,3.67,3.67,0,0,0,.92-1,4.73,4.73,0,0,0,.45-1,3.86,3.86,0,0,0,.16-.67c0-.15,0-.24,0-.24s0,.09,0,.24a4,4,0,0,1-.18.66,3.78,3.78,0,0,1-.47,1,3.47,3.47,0,0,1-1,.95,2.63,2.63,0,0,1-1.48.44,2.58,2.58,0,0,1-.4,0,1.72,1.72,0,0,1-.42-.12,2.45,2.45,0,0,1-.72-.44,3.34,3.34,0,0,1-.94-1.51,4.43,4.43,0,0,1,.45-3.6,3.35,3.35,0,0,1,1.28-1.23,2.38,2.38,0,0,1,1.65-.2,2.53,2.53,0,0,1,.92.44,2.16,2.16,0,0,0-1-.39c-1.49-.19-2.87,1.14-3.1,3s.79,3.45,2.27,3.64,2.87-1.14,3.1-3a4,4,0,0,0-.22-1.87,1.12,1.12,0,0,1,.05.13,3.8,3.8,0,0,1,.23,1,5.39,5.39,0,0,1,0,.68,2.18,2.18,0,0,0,0,.24s0-.08,0-.24A3.59,3.59,0,0,0,148.18,168.72Z"/><rect x="171.71" y="162.52" width="1.28" height="48.25" transform="translate(-36.07 331.92) rotate(-82.16)"/><polygon points="84.8 251.42 104.32 240.19 115.52 224.33 128.92 229.98 140.69 230.65 153 238.38 181.4 244.73 237 250.7 117.3 251.07 84.8 251.42"/><polygon points="279.57 237.22 302.56 233.58 316.08 234.56 320.95 239 330.69 239 334.75 245.22 365.58 249.67 267.99 250.88 279.57 237.22"/><path d="M224.66,231.68l-11.94,6.12-36.72.29c.87,0,39.63,8.74,39.63,8.74l23.31,2S229.33,246.25,224.66,231.68Z"/><path class="cls-2" d="M227.33,29.51c-108.18,0-195.88,87.7-195.88,195.88s87.7,195.87,195.88,195.87S423.2,333.57,423.2,225.39,335.51,29.51,227.33,29.51Zm0,382.06c-102.83,0-186.18-83.36-186.18-186.18S124.5,39.2,227.33,39.2s186.18,83.36,186.18,186.19S330.15,411.57,227.33,411.57Z"/><text class="cls-3" transform="translate(176.27 333.81)">CL</text></svg>